<?xml version="1.0" encoding="UTF-8" standalone="no"?>
<!-- Created with Inkscape (http://www.inkscape.org/) -->

<svg
   width="110.437mm"
   height="44.226002mm"
   viewBox="0 0 110.43699 44.226001"
   version="1.1"
   id="svg1"
   inkscape:version="1.4.2 (ebf0e940d0, 2025-05-08)"
   sodipodi:docname="dark mode KeyN logo 2.0.svg"
   inkscape:export-filename="dark mode KeyN logo.png"
   inkscape:export-xdpi="1000"
   inkscape:export-ydpi="1000"
   xmlns:inkscape="http://www.inkscape.org/namespaces/inkscape"
   xmlns:sodipodi="http://sodipodi.sourceforge.net/DTD/sodipodi-0.dtd"
   xmlns="http://www.w3.org/2000/svg"
   xmlns:svg="http://www.w3.org/2000/svg">
  <sodipodi:namedview
     id="namedview1"
     pagecolor="#ffffff"
     bordercolor="#000000"
     borderopacity="0.25"
     inkscape:showpageshadow="2"
     inkscape:pageopacity="0.0"
     inkscape:pagecheckerboard="0"
     inkscape:deskcolor="#d1d1d1"
     inkscape:document-units="mm"
     inkscape:zoom="1.4075477"
     inkscape:cx="235.87123"
     inkscape:cy="96.62195"
     inkscape:window-width="1920"
     inkscape:window-height="1043"
     inkscape:window-x="0"
     inkscape:window-y="0"
     inkscape:window-maximized="1"
     inkscape:current-layer="layer1" />
  <defs
     id="defs1" />
  <g
     inkscape:label="Layer 1"
     inkscape:groupmode="layer"
     id="layer1">
    <!-- <rect
       style="fill:#000000;fill-opacity:1;stroke:#177d5e;stroke-width:0;stroke-linecap:round;stroke-linejoin:miter;stroke-miterlimit:21.8;stroke-dasharray:none;stroke-opacity:1;paint-order:fill markers stroke"
       id="rect7"
       width="165.04178"
       height="101.50632"
       x="-21.99304"
       y="-25.376581"
       ry="1.3640001"
       rx="1.3640001" /> -->
    <path
       style="font-weight:bold;font-size:38.6195px;line-height:0.9;font-family:'Visby Round CF';-inkscape-font-specification:'Visby Round CF Bold';letter-spacing:-2.45269px;stroke:#ffffff;stroke-width:0.00000001;stroke-linecap:round;stroke-linejoin:round;stroke-miterlimit:21.8;stroke-dasharray:none;paint-order:fill markers stroke;stroke-opacity:1;fill:#ffffff;fill-opacity:1"
       d="m 48.781932,32.60171 -9.61626,-10.96794 8.61215,-8.95972 c 0.27034,-0.34758 0.54068,-0.92687 0.54068,-1.50617 0,-1.2744396 -1.08135,-2.3171696 -2.35579,-2.3171696 -0.73377,0 -1.42893,0.42482 -1.85374,0.88825 L 31.827972,22.2903 V 11.47684 c 0,-1.42892 -1.1972,-2.6261296 -2.62613,-2.6261296 -1.42892,0 -2.5875,1.1972096 -2.5875,2.6261296 v 22.36069 c 0,1.3903 1.15858,2.58751 2.5875,2.58751 1.42893,0 2.62613,-1.19721 2.62613,-2.62613 v -4.5571 l 4.09367,-4.24814 9.42315,10.65898 c 0.42482,0.46343 1.04273,0.77239 1.69926,0.77239 1.27445,0 2.31717,-1.04273 2.31717,-2.27855 0,-0.5793 -0.23171,-1.15859 -0.57929,-1.54478 z m 9.05598,-16.76087 c -4.40262,0 -10.15693,3.3599 -10.15693,10.31141 0,7.02875 5.44535,10.19555 10.58175,10.19555 2.43303,0 4.364,-0.65653 5.79292,-1.66064 0.96549,-0.81101 1.23583,-1.50616 1.23583,-2.12407 0,-0.96549 -0.65654,-1.73788 -1.73788,-1.73788 -0.65653,0 -1.19721,0.30896 -1.89236,0.61791 -1.15858,0.50206 -1.81511,0.81101 -3.20542,0.81101 -2.81922,0 -5.05915,-1.50616 -5.52258,-4.32538 l 11.46999,0.0772 c 2.04683,0 3.1668,-0.69515 3.1668,-2.70337 0,-5.98602 -5.32949,-9.46177 -9.73212,-9.46177 z m 0,4.40263 c 2.20131,0 4.36401,1.23582 4.7502,4.20952 h -9.65487 c 0.34757,-2.9737 2.70336,-4.20952 4.90467,-4.20952 z m 26.82085,-4.28677 c -0.96549,0 -1.85374,0.54068 -2.39441,1.7765 l -5.29087,11.97204 -5.17502,-11.97204 c -0.54067,-1.23582 -1.46754,-1.7765 -2.43302,-1.7765 -1.31307,0 -2.31717,1.04273 -2.31717,2.27855 0,0.46344 0.15447,0.84963 0.27033,1.15859 l 7.18323,15.83399 -2.20131,5.02054 c -0.11586,0.30895 -0.27034,0.69515 -0.27034,1.15858 0,1.23583 0.92687,2.27855 2.23993,2.27855 0.96549,0 1.89236,-0.54067 2.43303,-1.77649 l 10.00245,-22.51517 c 0.15448,-0.30896 0.30896,-0.69515 0.30896,-1.15859 0,-1.23582 -1.00411,-2.27855 -2.35579,-2.27855 z M 107.77216,9.0051904 c -1.42892,0 -2.62612,1.2358296 -2.62612,2.6647496 V 26.8474 L 93.173992,10.51135 c -0.65653,-0.9268596 -1.54478,-1.5061596 -2.66474,-1.5061596 -1.3903,0 -2.47165,0.88825 -2.47165,2.5102696 v 22.20621 c 0,1.42892 1.19721,2.66475 2.70337,2.66475 1.42892,0 2.5875,-1.23583 2.5875,-2.66475 V 18.54421 l 11.972048,16.29743 c 0.69515,0.96549 1.58339,1.54478 2.70336,1.54478 1.35168,0 2.43303,-0.88825 2.43303,-2.54889 V 11.66994 c 0,-1.42892 -1.15859,-2.6647496 -2.66475,-2.6647496 z"
       id="text1"
       aria-label="KeyN" />
    <ellipse
       style="fill:none;fill-opacity:1;stroke:#177d5e;stroke-width:5.22399;stroke-linecap:round;stroke-linejoin:round;stroke-miterlimit:21.8;stroke-dasharray:none;stroke-opacity:1;paint-order:fill markers stroke"
       id="path1"
       cx="11.124293"
       cy="11.124226"
       rx="8.5122986"
       ry="8.5122309" />
    <path
       style="fill:none;fill-opacity:1;stroke:#177d5e;stroke-width:5.224;stroke-linecap:round;stroke-linejoin:round;stroke-miterlimit:21.8;stroke-dasharray:none;stroke-opacity:1;paint-order:fill markers stroke"
       d="M 11.124622,20.51225 V 41.61428"
       id="path2"
       sodipodi:nodetypes="cc" />
    <path
       style="fill:none;fill-opacity:1;stroke:#177d5e;stroke-width:5.224;stroke-linecap:round;stroke-linejoin:round;stroke-miterlimit:21.8;stroke-dasharray:none;stroke-opacity:1;paint-order:fill markers stroke"
       d="m 15.875262,33.4922 h -3.38379 v 5.95265 h 3.38379"
       id="path4"
       sodipodi:nodetypes="cccc" />
    <path
       style="fill:none;fill-opacity:1;stroke:#177d5e;stroke-width:5.22401;stroke-linecap:round;stroke-linejoin:round;stroke-miterlimit:21.8;stroke-dasharray:none;stroke-opacity:1;paint-order:fill markers stroke"
       d="m 13.073482,34.24294 v 4.39391"
       id="path5" />
    <rect
       style="fill:#177d5e;fill-opacity:1;stroke:#177d5e;stroke-width:0;stroke-linecap:round;stroke-linejoin:miter;stroke-miterlimit:21.8;stroke-dasharray:none;stroke-opacity:1;paint-order:fill markers stroke"
       id="rect6"
       width="8.4198055"
       height="4.0588098"
       x="10.067164"
       y="30.880207"
       ry="1.364"
       rx="1.364" />
    <rect
       style="fill:#177d5e;fill-opacity:1;stroke:#177d5e;stroke-width:0;stroke-linecap:round;stroke-linejoin:miter;stroke-miterlimit:21.8;stroke-dasharray:none;stroke-opacity:1;paint-order:fill markers stroke"
       id="rect6-1"
       width="7.9263716"
       height="4.1584349"
       x="10.560603"
       y="37.898762"
       ry="1.364"
       rx="1.3639971" />
  </g>
</svg>
